<?xml version="1.0" standalone="no"?>
<!DOCTYPE svg PUBLIC "-//W3C//DTD SVG 20010904//EN"
 "http://www.w3.org/TR/2001/REC-SVG-20010904/DTD/svg10.dtd">
<svg version="1.0" xmlns="http://www.w3.org/2000/svg"
 width="470.000000pt" height="470.000000pt" viewBox="0 0 470.000000 470.000000"
 preserveAspectRatio="xMidYMid meet">
<metadata>
Created by potrace 1.14, written by Peter Selinger 2001-2017
</metadata>
<g transform="translate(0.000000,470.000000) scale(0.100000,-0.100000)"
fill="#000000" stroke="none">
<path d="M1353 4550 l-31 -5 1 -68 c1 -38 -2 -67 -8 -68 -5 -1 -35 -2 -65 -3
-30 0 -60 -4 -66 -8 -7 -4 -10 -34 -9 -73 l1 -65 -73 0 -73 0 0 -145 c0 -109
-3 -145 -12 -146 -7 -1 -40 -2 -73 -3 l-60 -1 -2 -70 c-1 -38 -2 -105 -2 -147
l-1 -78 -73 0 -73 0 1 -145 0 -145 -72 0 c-73 0 -73 0 -74 -27 0 -16 -1 -82
-2 -148 l-2 -120 -65 -1 c-36 -1 -68 -2 -72 -3 -5 0 -8 -66 -8 -146 l0 -145
-73 0 -73 0 0 -145 c1 -122 -1 -145 -14 -146 -8 -1 -41 -1 -73 -1 -55 0 -57
-1 -58 -26 0 -15 -2 -81 -2 -147 l-2 -120 -70 -1 -70 -1 -3 -221 -2 -221 72 2
73 2 0 -70 c0 -39 3 -72 7 -75 3 -3 234 -5 512 -5 443 0 505 -2 508 -15 2 -8
4 -239 3 -512 l0 -498 35 -1 c19 -1 53 -1 75 -1 l40 1 -3 -75 -3 -74 75 0 76
0 0 -73 0 -73 58 -1 c31 -1 64 -1 73 -2 13 -1 15 -14 14 -71 0 -42 3 -70 10
-71 59 -5 2477 -1 2482 4 3 4 5 36 4 72 -2 57 0 65 16 66 10 1 43 2 73 3 l55
1 3 73 3 72 72 0 73 0 0 1835 0 1835 -40 1 c-23 1 -56 0 -73 -1 l-33 -2 0 76
0 76 -76 0 -75 0 1 58 c1 31 1 64 1 73 -1 14 -20 16 -137 15 -75 -1 -141 2
-147 6 -6 4 -9 33 -8 72 2 49 -1 66 -11 67 -17 1 -226 1 -259 0 -25 -1 -26 -2
-24 -71 1 -58 -1 -70 -14 -71 -9 -1 -43 -2 -76 -2 l-59 -1 2 72 c2 53 -1 72
-10 73 -77 5 -278 2 -279 -3 -1 -5 -2 -35 -3 -67 0 -33 -5 -63 -9 -67 -12 -12
-127 -12 -134 0 -4 5 -6 38 -5 73 1 35 -3 63 -8 64 -6 0 -62 1 -125 1 -63 0
-126 -1 -139 -1 -22 -1 -23 -4 -22 -71 1 -56 -2 -70 -14 -71 -44 -4 -116 -4
-125 -2 -6 2 -10 33 -9 73 2 63 0 70 -17 71 -10 0 -64 1 -119 1 -177 0 -159 7
-156 -62 1 -33 -1 -66 -5 -72 -5 -7 -33 -13 -69 -13 -72 -1 -77 4 -75 88 1 55
0 57 -24 58 -29 1 -227 1 -253 0 -13 -1 -16 -12 -16 -58 0 -95 6 -88 -69 -86
-38 1 -70 2 -73 2 -3 1 -5 33 -5 71 2 64 0 70 -19 71 -88 4 -216 3 -243 -1z"/>
</g>
</svg>
